<svg width="1574" height="1574" viewBox="0 0 1574 1574" fill="none" xmlns="http://www.w3.org/2000/svg">
<g filter="url(#filter0_f_2_19)">
<circle cx="787.5" cy="787.5" r="736.5" fill="#78d8ab"/>
</g>
<ellipse cx="787" cy="787" rx="687" ry="689" fill="#0A9957"/>
<path d="M861.951 1374.82C879.417 1388.44 889.14 1409.73 887.997 1431.85C886.854 1453.97 874.99 1474.14 856.213 1485.89C852.094 1488.45 847.22 1491.25 846.51 1496.03C845.353 1503.9 855.673 1507.79 863.571 1508.73C885.906 1511.41 910.216 1513.7 929.374 1501.88C937.504 1496.88 944.013 1489.68 950.09 1482.31C964.925 1464.29 977.767 1444.72 988.391 1423.94C992.309 1416.22 996.011 1407.63 993.775 1399.26C992.464 1394.4 989.255 1390.31 986.062 1386.41C965.3 1361.03 945.725 1351.16 916.649 1316.99" fill="black"/>
<path d="M860.625 1376.24C887.866 1399.72 893.018 1441.72 869.186 1469.57C863.756 1475.92 857.339 1480.07 850.552 1484.77C845.77 1488.09 841.636 1492.75 842.531 1498.98C844.366 1511.92 862.584 1512.86 872.348 1513.87C888.683 1515.53 905.99 1516.2 921.6 1510.2C937.211 1504.19 948.271 1491.28 958.405 1478.23C969.969 1463.34 980.229 1447.48 989.07 1430.83C996.783 1416.27 1002.54 1402.14 991.693 1387.64C982.437 1375.22 970.946 1364.74 959.454 1354.48C945.216 1342.01 931.818 1328.61 919.348 1314.37C916.109 1310.59 910.633 1316.08 913.888 1319.85C932.182 1341.07 954.178 1358.01 973.553 1378.09C978.348 1382.83 982.734 1387.95 986.664 1393.43C993.204 1403.07 989.996 1412.54 985.121 1422.09C977.267 1437.46 968.15 1452.15 957.865 1466.02C947.607 1479.9 936.085 1495.88 919.456 1502.44C904.972 1508.14 888.776 1507.37 873.582 1505.85C867.905 1505.29 856.336 1505.57 852.326 1500.57C847.066 1494.03 860.44 1488.23 864.666 1484.73C875.132 1476.17 883.032 1464.88 887.495 1452.12C897.738 1423.17 887.033 1391.5 862.815 1373.2C861.118 1371.91 858.912 1374.75 860.532 1376.17L860.625 1376.24Z" fill="#301523"/>
<path d="M438.391 1379.24C433.64 1422.21 399.581 1455.82 363.47 1478.33C355.403 1483.36 345.778 1491.79 349.68 1500.59C351.732 1505.21 356.869 1507.4 361.604 1508.95C398.1 1520.72 437.388 1517.97 475.581 1515.12C485.916 1514.33 497.392 1512.99 504.148 1504.95C510.55 1497.35 510.565 1486.33 510.951 1476.32C512.11 1448.23 518.908 1420.67 530.942 1395.26" fill="black"/>
<path d="M436.647 1378.74C432.375 1408.05 414.867 1432.5 392.979 1451.72C382.181 1461.17 370.319 1468.55 358.611 1476.69C350.266 1482.49 340.286 1492.84 346.564 1503.65C352.842 1514.47 371.63 1516.55 382.705 1518.46C399.126 1521.12 415.764 1522.19 432.39 1521.66C448.988 1521.3 465.863 1520.53 482.352 1518.57C493.813 1517.17 505.228 1513.3 510.688 1502.3C513.773 1496.13 514.452 1489.06 514.807 1482.24C515.136 1472.72 515.944 1463.21 517.229 1453.77C520.272 1434.27 526.058 1415.3 534.412 1397.42C536.649 1392.64 529.522 1388.44 527.301 1393.26C515.278 1418.93 508.378 1446.7 506.986 1475.01C506.292 1489.66 505.968 1504.83 489.078 1509.24C475.719 1512.72 460.556 1512.32 446.813 1512.99C431.487 1513.87 416.118 1513.71 400.815 1512.49C393.132 1511.78 385.502 1510.58 377.97 1508.9C371.214 1507.36 362.067 1506.14 356.375 1501.85C343.51 1492.01 373.342 1476.77 379.991 1471.89C389.524 1464.95 398.395 1457.13 406.491 1448.56C424.554 1429.26 437.496 1405.78 440.195 1379.22C440.396 1377.17 436.879 1376.67 436.57 1378.73L436.647 1378.74Z" fill="#301523"/>
<path d="M679.826 832.998C642.574 885.814 620.3 948.101 608.237 1011.59C605.322 1027.02 602.067 1036.58 609.965 1049.95C622.398 1071.1 630.557 1094.33 641.185 1116.37C687.461 1212.2 766.716 1283.66 839.183 1359.18C851.709 1372.22 842.839 1379.51 860.871 1384.5C881.926 1390.33 917.096 1364.87 929.452 1346.86C945.756 1323.12 919.61 1311.38 904.571 1286.7C886.461 1257.1 871.406 1220.28 855.596 1189.4C842.932 1164.72 833.353 1138.34 819.593 1114.17C805.834 1090 787.062 1067.45 761.718 1056.02C813.985 974.705 838.546 878.669 831.733 782.249" fill="#D62F4B"/>
<path d="M679.178 832.628C650.888 872.733 630.959 918.114 617.693 965.284C614.413 976.956 611.528 988.746 609.04 1000.65C606.88 1010.99 603.672 1021.94 603.656 1032.57C603.641 1043.2 609.456 1051.4 614.207 1060.55C620.053 1071.83 625.005 1083.55 630.064 1095.2C649.315 1139.57 674.705 1180.03 705.031 1217.66C735.357 1255.28 769.061 1289.54 802.78 1323.86C811.007 1332.21 819.198 1340.57 827.352 1348.96C835.065 1356.88 842.114 1363.69 846.171 1374.08C850.968 1386.32 865.283 1388.26 876.852 1385.5C893.928 1381.43 909.877 1370.07 922.032 1357.73C932.244 1347.35 940.311 1334.59 932.352 1320.37C927.925 1312.52 921.153 1306.14 915.384 1299.32C907.517 1290.06 901.501 1279.54 895.779 1268.84C883.824 1246.56 873.69 1223.38 862.63 1200.67C851.046 1176.87 840.587 1152.53 828.833 1128.82C818.977 1108.95 807.238 1089.72 790.918 1074.39C787.678 1071.32 784.263 1068.44 780.691 1065.76C778.48 1064.11 776.213 1062.57 773.889 1061.14C771.575 1059.69 767.379 1058.48 765.636 1056.51C763.029 1053.5 769.307 1046.85 771.39 1043.37C774.567 1038.03 777.653 1032.63 780.645 1027.17C792.086 1005.95 801.784 983.834 809.644 961.043C825.402 915.529 833.76 867.784 834.402 819.624C834.556 807.192 834.14 794.774 833.26 782.372C833.137 780.537 830.268 780.521 830.407 782.372C836.934 878.522 812.418 974.228 760.469 1055.4C760.072 1056.09 760.306 1056.97 760.993 1057.37C794.265 1072.8 814.38 1104.65 829.62 1136.67C846.094 1171.24 862.136 1206.09 878.703 1240.55C886.647 1257.14 894.683 1274.1 904.787 1289.52C912.87 1301.86 927.277 1311.93 932.182 1326.03C937.195 1340.47 923.544 1353.41 913.672 1361.94C902.412 1371.62 888.39 1380.9 873.566 1383.46C866.718 1384.65 857.524 1384 852.218 1378.83C848.886 1375.63 848.315 1370.5 846.295 1366.49C843.21 1360.32 837.826 1355.6 833.075 1350.68C826.442 1343.83 819.784 1337.01 813.1 1330.21C788.157 1304.81 763.076 1279.53 739.228 1253.09C714.995 1226.23 692.012 1198.13 672.19 1167.83C662.142 1152.56 653.01 1136.71 644.842 1120.35C636.512 1103.6 629.756 1086.14 621.704 1069.23C617.076 1059.39 609.055 1049.18 606.988 1038.51C605.153 1028.88 608.268 1018.7 610.073 1009.29C614.079 988.534 619.228 968.013 625.498 947.823C638.209 907.224 656.21 868.368 680.505 833.368C681.06 832.582 679.78 831.826 679.224 832.612L679.178 832.628Z" fill="#F7A5D0"/>
<path d="M677.897 831.887C654.978 864.395 636.8 899.999 623.909 937.627C617.371 956.316 611.937 975.373 607.636 994.7C604.088 1010.76 597.131 1030.44 603.64 1046.51C606.88 1054.49 611.862 1061.83 615.58 1069.65C620.469 1079.85 624.835 1090.29 629.323 1100.64C637.159 1118.7 646.118 1136.25 656.148 1153.19C675.83 1186.2 699.508 1216.7 724.79 1245.58C750.535 1274.88 778.022 1302.74 805.402 1330.6C811.48 1336.77 817.547 1342.97 823.604 1349.2C830.067 1355.84 838.443 1362.5 842.114 1371.2C843.888 1375.35 844.767 1379.62 848.161 1382.89C852.217 1386.78 858.418 1388.71 863.894 1389.35C877.361 1390.9 891.259 1384.08 902.257 1377.01C913.779 1369.66 925.148 1360.29 932.845 1348.86C940.542 1337.43 939.493 1325.45 931.503 1314.45C927.153 1308.46 921.939 1303.16 917.188 1297.48C910.838 1289.64 905.279 1281.18 900.591 1272.25C889.469 1252.1 880.045 1231.09 870.203 1210.31C860.208 1189.2 849.919 1168.28 840.34 1146.96C823.557 1109.65 802.625 1070.56 763.862 1052.31L765.404 1058.22C818.14 976.257 842.93 879.425 836.067 782.203C835.666 776.727 827.105 776.665 827.475 782.203C833.887 877.849 809.537 973.038 757.985 1053.86C756.798 1055.92 757.485 1058.55 759.527 1059.76C792.429 1075.02 812.158 1106.33 827.26 1137.95C843.764 1172.51 859.838 1207.24 876.435 1241.78C884.41 1258.36 892.446 1275.3 902.565 1290.71C910.509 1302.82 924.793 1312.85 929.683 1326.64C934.418 1339.96 920.813 1352.19 911.743 1359.97C900.946 1369.22 887.063 1378.4 872.733 1380.72C866.856 1381.67 858.665 1381.21 854.099 1376.81C851.014 1373.9 850.49 1368.72 848.623 1365.03C845.384 1358.64 839.893 1353.74 834.972 1348.65C828.339 1341.8 821.655 1334.97 814.919 1328.16C789.992 1302.76 764.911 1277.48 741.064 1251.04C716.985 1224.35 694.171 1196.45 674.473 1166.35C664.435 1151.08 655.308 1135.22 647.139 1118.87C638.81 1102.12 632.069 1084.64 624.002 1067.77C619.451 1058.19 611.461 1048.21 609.517 1037.74C607.836 1028.64 610.859 1018.89 612.602 1009.97C616.547 989.205 621.582 968.661 627.688 948.425C640.028 907.887 657.721 869.093 681.676 834.062C683.312 831.687 679.486 829.527 677.836 831.826L677.897 831.887Z" fill="#301523"/>
<path d="M735.727 816.616C723.032 852.943 692.66 879.721 664.015 905.419C558.507 1000.11 480.039 1122.33 456.407 1263.48L438.591 1369.61C437.758 1374.61 436.956 1379.98 439.085 1384.57C441.63 1390.02 447.584 1392.92 453.199 1395.06C473.215 1402.62 494.612 1405.83 515.964 1404.47C520.114 1404.21 524.433 1403.71 527.996 1401.57C532.423 1398.92 535.061 1394.17 537.498 1389.62L663.984 1154.47C671.851 1139.85 679.934 1124.94 692.213 1113.75C703.38 1103.59 717.309 1097.14 730.544 1089.89C787.864 1058.42 835.914 1007.27 855.488 944.892C875.063 882.513 863.047 809.151 818.236 761.518L809.506 773.503" fill="#D62F4B"/>
<path d="M735.079 816.431C717.402 864.373 672.175 894.606 637.052 929.035C602.721 962.584 571.949 999.59 545.225 1039.46C518.666 1079.12 496.947 1121.81 480.532 1166.63C462.33 1216.67 454.155 1268.44 445.378 1320.7L438.005 1364.66C436.462 1373.91 434.272 1383.89 442.339 1390.79C450.854 1398.07 464.891 1400.77 475.504 1402.96C487.891 1405.52 500.55 1406.53 513.187 1405.97C523.507 1405.47 530.88 1403.25 536.479 1394.17C544.192 1381.64 550.578 1368.08 557.535 1355.11C571.819 1328.52 586.113 1301.94 600.417 1275.38L643.33 1195.64C650.59 1182.11 657.86 1168.59 665.141 1155.09C671.697 1142.92 678.33 1130.52 687.646 1120.2C705.246 1100.75 732.025 1091.85 753.497 1077.46C772.353 1064.88 789.634 1050.09 804.97 1033.4C835.528 999.991 857.755 958.436 864.064 913.286C870.126 869.957 862.26 824.021 839.214 786.522C833.454 777.196 826.784 768.463 819.3 760.453C818.968 760.165 818.529 760.033 818.093 760.089C817.657 760.145 817.266 760.384 817.017 760.746L808.457 772.824C807.516 774.151 809.675 775.37 810.631 774.089L819.532 762.212L817.249 762.505C848.639 796.564 863.864 842.361 863.139 888.375C862.414 934.388 845.168 978.273 817.403 1014.51C803.444 1032.61 787.247 1048.87 769.199 1062.9C750.273 1077.7 729.372 1088.1 708.825 1100.27C687.893 1112.61 675.507 1130.46 664.092 1151.5C650.538 1176.57 637.041 1201.67 623.601 1226.79C596.226 1277.69 568.831 1328.59 541.415 1379.5C538.423 1385.04 535.785 1391.45 531.667 1396.3C525.882 1403.13 517.352 1403.25 508.976 1403.39C495.184 1403.62 481.428 1401.93 468.099 1398.38C461.391 1396.78 454.866 1394.49 448.633 1391.54C438.175 1386.22 438.792 1376.95 440.427 1366.96C442.725 1352.8 445.178 1338.65 447.553 1324.51C455.883 1274.93 463.256 1225.54 479.56 1177.8C494.777 1133.67 515.173 1091.5 540.32 1052.17C565.372 1013.01 594.312 976.472 626.701 943.119C643.021 926.151 660.39 910.51 677.697 894.653C694.079 879.629 710.09 863.879 722.322 845.184C728.123 836.311 732.846 826.777 736.39 816.786C736.683 815.969 735.387 815.629 735.094 816.431H735.079Z" fill="#F7A5D0"/>
<path d="M733.783 816.077C715.69 863.293 670.232 893.295 635.278 927.308C600.645 960.898 569.625 998.023 542.727 1038.08C516.024 1077.93 494.205 1120.85 477.741 1165.9C459.554 1215.94 451.379 1267.71 442.602 1319.97L435.306 1363.9C433.547 1374.44 431.527 1385.28 440.658 1392.98C449.528 1400.48 463.796 1403.38 474.779 1405.63C487.408 1408.26 500.316 1409.29 513.203 1408.71C524.479 1408.17 532.701 1405.49 538.824 1395.54C546.537 1383.01 552.877 1369.44 559.803 1356.47C574.045 1329.84 588.334 1303.26 602.669 1276.7L645.582 1196.99C652.863 1183.47 660.138 1169.96 667.409 1156.45C673.857 1144.48 680.351 1132.23 689.513 1122.08C706.944 1102.82 733.552 1094.01 754.839 1079.75C773.886 1067.09 791.344 1052.18 806.837 1035.35C837.688 1001.61 860.378 959.762 866.826 914.15C872.996 870.049 865.16 823.342 841.714 785.149C835.863 775.586 829.039 766.654 821.352 758.494C820.391 757.558 819.054 757.111 817.723 757.283C816.392 757.454 815.212 758.224 814.519 759.374L806.282 771.575C803.922 775.092 809.552 779.55 812.221 776.202L821.352 764.634H815.182C845.925 798.399 860.949 843.009 860.239 888.452C859.545 933.555 842.762 976.607 815.691 1012.39C801.752 1030.66 785.49 1047.03 767.318 1061.09C748.576 1075.73 727.829 1086 707.483 1098.11C686.181 1110.73 673.455 1128.85 661.856 1150.28C648.312 1175.35 634.815 1200.45 621.365 1225.57C594 1276.48 566.59 1327.39 539.133 1378.28C536.202 1383.69 533.611 1390.08 529.569 1394.78C524.386 1400.85 516.427 1400.66 508.992 1400.77C495.457 1400.97 481.96 1399.29 468.886 1395.79C462.409 1394.28 456.111 1392.09 450.099 1389.25C440.921 1384.51 441.723 1376.69 443.173 1367.82C445.486 1353.66 447.939 1339.52 450.315 1325.37C458.644 1275.79 466.017 1226.4 482.322 1178.68C497.494 1134.79 517.796 1092.85 542.804 1053.73C567.706 1014.76 596.419 978.356 628.522 945.062C644.765 928.094 662.056 912.314 679.302 896.38C695.776 881.171 711.695 865.221 723.819 846.187C729.578 837.131 734.238 827.422 737.701 817.264C738.55 814.781 734.74 813.825 733.814 816.2L733.783 816.077Z" fill="#301523"/>
<path d="M760.237 526.962C793.047 523.059 825.933 538.778 849.364 562.07C872.795 585.362 888.097 615.549 900.931 645.998C909.137 665.434 916.633 685.456 929.004 702.532C936.532 712.897 945.694 721.952 954.61 731.145C974.097 751.239 992.567 772.254 1010.02 794.188C1012.74 797.257 1014.93 800.761 1016.5 804.554C1018.66 810.724 1017.42 817.604 1016.16 824.051C1013.9 835.62 1010.31 848.932 999.451 853.529C992.078 856.614 983.579 854.593 976.128 851.663C888.899 817.357 817.742 745.352 800.883 651.906" fill="#E7EAED"/>
<path d="M760.237 528.89C812.822 525.929 853.359 563.751 877.268 606.973C889.608 629.277 898.262 653.109 908.874 676.216C919.78 699.971 935.39 717.864 953.345 736.498C972.426 756.335 991.245 776.989 1007.92 798.908C1016.17 809.706 1013.03 824.344 1008.49 836.361C1006.42 841.852 1003.21 847.359 997.461 849.549C990.412 852.233 982.931 849.688 976.236 847.05C936.335 831.395 900.279 807.319 870.527 776.465C854.041 759.284 840.024 739.894 828.879 718.852C817.434 697.148 810.986 674.427 804.939 650.811C803.813 646.399 796.209 647.155 796.764 651.906C802.055 697.195 826.951 741.048 856.814 774.675C887.387 809.12 926.336 835.682 968.786 853.344C979.583 857.833 992.386 862.722 1003.54 856.429C1012.55 851.308 1016.65 841.004 1018.96 831.486C1022.05 819.347 1024.29 806.806 1016.94 795.87C1008.92 783.853 998.711 772.901 989.178 762.027C979.357 750.715 969.243 739.696 958.836 728.97C948.286 718.065 937.349 707.375 929.066 694.603C913.486 670.293 905.296 642.003 892.369 616.32C867.566 566.96 820.457 515.856 759.713 525.096C757.568 525.435 758.078 529.014 760.237 528.89V528.89Z" fill="#301523"/>
<path d="M975.481 849.025C979.546 868.855 987.482 887.688 998.835 904.448C1000.28 906.896 1002.25 909.001 1004.59 910.618C1006.97 912.231 1010.1 912.231 1012.49 910.618C1015.57 908.103 1014.94 903.044 1013.32 899.265C1011.7 895.485 1009.37 891.552 1010.23 887.588C1012.9 891.398 1014.09 896.102 1016.7 899.928C1019.3 903.753 1024.41 906.715 1028.37 904.556C1032.34 902.396 1032.63 896.843 1031.23 892.493C1029.82 888.143 1027.17 884.287 1026.51 879.813C1028.99 884.657 1031.63 889.701 1036.06 892.786C1040.48 895.871 1047.22 896.226 1050.54 892.046C1053.36 888.467 1052.73 883.284 1051.94 878.703C1047.61 853.436 1042.21 826.103 1023.35 808.888C1018.9 804.578 1013.44 801.463 1007.47 799.834C994.855 796.841 981.25 804.245 975.311 815.83C969.372 827.414 970.684 842.053 977.008 853.652" fill="white"/>
<path d="M973.352 849.025C976.128 870.034 984.365 891.907 997.569 908.72C1001.5 913.734 1009.15 918.454 1015.02 913.225C1023.22 905.898 1013.21 895.686 1013.64 887.665L1007.18 889.424C1011.81 896.766 1017.36 913.903 1029.67 907.826C1041.52 901.964 1031.69 887.156 1029.9 878.919L1023.36 881.68C1027.51 889.778 1033.36 899.033 1043.64 898.848C1053.67 898.679 1056.89 889.686 1055.98 881.094C1053.56 859.607 1048.27 835.312 1035.62 817.357C1024.07 800.975 1004.5 788.543 985.059 800.25C965.624 811.958 964.158 836.962 973.83 855.55C975.974 859.684 982.175 856.028 980 851.894C972.426 836.993 972.873 816.092 988.761 806.698C1004.4 797.443 1019.81 808.241 1028.97 821.182C1037.1 832.72 1041.39 846.387 1044.4 860.023C1046.15 867.141 1047.5 874.35 1048.46 881.618C1049.31 889.238 1042.98 894.221 1036.63 888.868C1033.34 886.092 1031.37 881.819 1029.42 878.071C1027.48 874.322 1022.02 876.991 1022.87 880.832C1023.85 885.228 1030.76 895.501 1027.99 899.342C1021.82 908.011 1015.08 889.177 1013.06 885.86C1012.23 884.564 1010.65 883.956 1009.17 884.359C1007.69 884.762 1006.64 886.082 1006.58 887.619C1006.39 890.348 1006.8 893.086 1007.78 895.64C1008.63 898.046 1012.07 902.921 1011.02 905.45C1009.69 908.535 1005.34 906.993 1003.79 905.342C1002.49 903.802 1001.32 902.162 1000.28 900.437C998.094 897.167 996.073 893.758 994.114 890.303C987.046 876.978 981.43 862.932 977.362 848.408C976.714 846.202 972.827 846.495 973.166 848.979L973.352 849.025Z" fill="#301523"/>
<path d="M1016.28 841.281C953.335 869.52 889.115 894.658 823.619 916.695C818.853 918.443 813.938 919.754 808.935 920.613C804.754 921.215 800.451 921.184 796.44 922.495C787.062 925.58 781.185 935.93 781.786 945.787C782.388 955.644 788.589 964.606 796.718 970.221C800.187 972.899 804.429 974.382 808.811 974.447C814.719 974.169 819.609 970.066 824.36 966.549C849.194 948.178 880.693 942.1 909.923 932.089C923.575 927.462 936.902 921.785 950.199 916.171L1032.82 881.325C1048.6 874.661 1066.64 865.19 1068.9 848.207C1069.99 840.001 1066.41 831.101 1059.38 826.72C1052.34 822.339 1042.13 823.419 1036.81 829.805" fill="#301523"/>
<path d="M1015.63 838.921C966.673 859.514 917.466 879.814 866.949 896.288C854.285 900.406 841.945 905.419 829.389 909.846C823.933 911.974 818.367 913.808 812.714 915.338C806.991 916.711 800.898 916.402 795.268 918.191C777.868 923.76 773.518 945.155 781.462 959.839C785.766 967.814 793.695 975.404 802.533 978.01C813.439 981.219 821.367 973.846 829.728 968.107C849.364 954.657 872.595 948.348 895.084 941.437C918.963 934.095 941.823 924.469 964.806 914.705C988.839 904.556 1012.99 894.653 1036.92 884.256C1053.73 876.929 1075.16 864.419 1073.31 843.009C1071.63 823.681 1048.41 811.218 1033.8 826.735C1030.05 830.7 1035.95 836.638 1039.82 832.736C1047.86 824.622 1060.21 828.818 1063.73 839.091C1066.66 847.606 1062.8 856.182 1056.69 862.229C1043.64 875.047 1023.28 880.739 1006.87 887.588C967.969 903.985 929.452 921.801 889.022 934.126C871.438 939.478 853.652 944.723 837.302 953.299C829.589 957.31 823.234 962.925 815.861 967.182C803.999 974.123 790.995 962.678 787.339 951.217C784.686 942.903 787.077 932.707 794.898 928.079C799.279 925.441 804.616 925.704 809.536 924.994C814.733 924.12 819.846 922.809 824.823 921.076C845.091 914.597 864.928 907.394 884.765 899.928C929.714 883.053 974.231 864.018 1017.42 843.379C1019.89 842.207 1018.1 837.857 1015.56 838.921H1015.63Z" fill="#301523"/>
<path d="M631.961 424.832C622.151 433.131 619.621 445.872 612.957 456.299C609.163 462.207 601.389 463.811 598.257 469.904C595.126 475.997 600.648 479.884 599.383 485.792C596.668 498.672 586.596 513.465 592.519 526.993C596.823 536.803 611.569 541.786 621.38 542.727C625.899 543.158 626.763 535.939 622.444 534.875C611.076 532.068 597.116 530.093 598.581 515.285C599.434 508.694 601.065 502.227 603.44 496.019C605.075 491.392 608.5 485.314 607.435 480.255C606.772 477.169 605.337 477.37 606.232 473.714C607.219 469.735 609.687 469.457 612.664 467.035C616.028 464.132 618.736 460.546 620.608 456.515C625.236 447.152 626.501 434.75 634.676 427.624C636.604 425.942 633.812 423.212 631.9 424.832H631.961Z" fill="#301523"/>
<path d="M629.663 465.138C629.91 464.984 629.755 465.138 629.586 465.138C629.416 465.138 629.03 465.045 629.431 465.138L627.766 462.948C627.736 463.219 627.736 463.493 627.766 463.765C627.766 464.043 627.766 464.027 627.766 463.765C627.773 463.904 627.773 464.043 627.766 464.182C627.766 464.428 627.766 464.459 627.766 464.274C627.766 464.089 627.642 464.675 627.611 464.737C627.827 464.182 627.442 464.937 627.364 465.045L630.851 464.135C631.132 464.324 631.344 464.601 631.452 464.922C631.182 463.947 630.373 463.217 629.376 463.048C628.379 462.878 627.374 463.301 626.798 464.132C626.221 464.963 626.178 466.053 626.686 466.927C627.017 467.596 627.559 468.138 628.228 468.47C629.44 469.163 630.984 468.758 631.699 467.56C632.77 465.796 632.834 463.599 631.869 461.775C631.336 460.895 630.289 460.469 629.293 460.726C628.299 461.009 627.467 461.69 626.994 462.608C626.605 463.34 626.723 464.238 627.287 464.845C627.888 465.423 628.795 465.542 629.524 465.138H629.663Z" fill="#301523"/>
<path d="M628.121 452.643C631.181 454.547 634.479 456.035 637.931 457.071C642.559 458.52 644.61 451.024 639.921 449.852C636.431 448.943 632.838 448.492 629.231 448.51C628.247 448.541 627.399 449.213 627.143 450.165C626.888 451.116 627.285 452.123 628.121 452.643V452.643Z" fill="#301523"/>
<path d="M671.774 482.722C673.316 481.504 676.324 479.221 678.484 479.853C681.569 480.779 680.844 486.301 680.211 488.399C678.53 493.952 674.226 495.618 668.951 494.708C665.635 494.137 663.352 498.472 666.56 500.4C676.077 506.076 686.613 496.189 687.091 486.748C687.338 482.26 685.98 476.815 681.507 474.763C677.034 472.712 672.252 476.182 669.383 479.622C668.041 481.165 669.876 484.172 671.774 482.707V482.722Z" fill="#301523"/>
<path d="M677.003 485.607C676.078 485.005 674.674 485.53 673.764 485.946C672.854 486.363 671.404 487.396 671.296 488.692C671.221 489.359 671.516 490.015 672.065 490.4C672.615 490.786 673.332 490.841 673.933 490.543C674.537 490.171 674.896 489.505 674.877 488.797C674.858 488.088 674.463 487.443 673.841 487.103C673.466 486.898 673.012 486.903 672.642 487.118C672.273 487.333 672.043 487.725 672.036 488.152C672.006 488.341 672.006 488.534 672.036 488.723C672.113 489.047 672.16 489.031 672.144 488.723L672.622 488.245L672.468 488.337L673.131 488.152H672.962L673.625 488.337L673.856 488.97L674.011 488.785C674.166 488.647 674.31 488.497 674.442 488.337C674.692 488.083 674.972 487.86 675.275 487.674C675.862 487.304 676.602 487.196 677.096 486.687C677.237 486.541 677.304 486.338 677.277 486.136C677.25 485.935 677.132 485.757 676.957 485.653L677.003 485.607Z" fill="#301523"/>
<path d="M661.423 435.305C656.996 444.561 657.474 455.605 660.035 465.616C660.621 467.385 660.877 469.246 660.791 471.107C660.487 472.745 659.886 474.313 659.017 475.735L653.803 485.638C652.911 487.661 651.59 489.466 649.932 490.929C647.556 492.457 644.698 493.051 641.91 492.595C630.048 491.33 620.053 480.841 608.16 481.797C606.939 481.849 605.746 482.182 604.674 482.769C603.628 483.532 602.733 484.484 602.036 485.576C598.089 490.937 593.614 495.887 588.678 500.353C586.125 502.356 583.911 504.757 582.122 507.464C580.58 510.272 580.102 514.036 582.03 516.642C579.32 518.584 577.157 521.193 575.752 524.216C574.354 527.31 574.762 530.922 576.816 533.626C577.479 534.412 578.359 535.045 578.914 535.878C579.447 536.667 579.887 537.516 580.225 538.407C583.638 545.934 590.144 551.613 598.062 553.979C605.98 556.345 614.535 555.167 621.518 550.748C623.673 552.959 626.737 554.038 629.802 553.663C632.827 553.262 635.737 552.238 638.347 550.655C642.789 548.349 646.706 545.151 649.854 541.261C652.33 537.765 654.313 533.945 655.747 529.908C660.869 516.943 664.723 503.511 667.254 489.803C667.656 486.598 668.557 483.475 669.923 480.548C671.342 477.578 674.182 475.54 677.45 475.149C678.675 475.239 679.906 475.198 681.121 475.025C683.034 474.501 684.206 472.65 685.255 470.938C687.492 467.143 689.883 462.963 689.189 458.597C688.497 455.564 687.012 452.77 684.885 450.499C680.025 444.855 674.778 439.557 669.182 434.642C668.087 433.639 666.622 432.575 665.295 433.208" fill="#301523"/>
<path d="M659.527 434.133C657.018 439.567 655.648 445.457 655.501 451.44C655.315 460.125 658.586 468.238 654.945 476.537C653.742 479.252 651.999 483.787 649.917 485.9C645.289 490.62 639.937 489.278 634.615 487.072C628.908 484.697 623.678 481.211 617.755 479.36C613.405 477.956 607.929 477.046 603.641 479.051C598.798 481.303 595.697 487.643 592.149 491.484C585.162 499.012 572.498 506.77 578.699 518.586L579.3 513.959C574.302 518.216 569.829 524.17 571.449 531.158C572.235 534.551 574.534 536.294 576.323 539.071C578.112 541.847 579.408 544.979 581.66 547.678C592.242 560.018 609.611 562.023 623.432 554.126L618.804 553.54C629.756 562.795 645.382 553.339 652.739 543.652C657.568 537.359 660.082 529.245 662.581 521.825C665.689 512.57 668.204 503.126 670.108 493.551C670.957 489.386 671.281 481.751 675.584 479.422C678.376 477.879 681.754 479.19 684.562 477.262C688.958 474.177 692.429 466.464 692.768 461.22C693.261 453.723 687.539 447.8 682.772 442.71C678.006 437.619 672.437 429.814 665.218 429.536C660.437 429.351 660.483 436.647 665.218 436.925C667.964 437.095 672.731 443.095 674.643 444.931C676.556 446.766 678.623 448.849 680.428 450.977C683.42 454.479 685.734 457.873 685.163 462.793C684.566 466.989 681.537 470.43 677.451 471.555C669.445 474.162 666.113 478.002 664.247 486.502C661.671 498.271 659.187 509.794 655.115 521.178C652.755 527.78 650.379 535.276 645.567 540.567C641.325 545.195 630.543 553.524 624.203 548.141C622.956 546.953 621.084 546.709 619.575 547.539C609.395 553.354 596.916 552.475 588.555 543.883C585.671 540.922 584.159 537.497 582.215 533.95C580.997 531.744 578.976 531.512 578.791 528.15C578.606 524.787 582.37 521.393 584.73 519.373C585.927 518.131 586.171 516.252 585.331 514.745C582.015 508.405 594.833 500.06 598.443 496.065C603.286 490.713 605.4 484.404 613.667 485.962C624.126 487.936 632.934 496.451 644.009 496.019C654.452 495.618 659.681 483.679 662.858 475.133C664.879 469.719 662.735 465.215 661.671 459.816C659.931 451.838 660.569 443.526 663.506 435.907C664.401 433.64 660.545 431.989 659.511 434.226L659.527 434.133Z" fill="#301523"/>
<path d="M664.832 441.645C660.668 435.828 657.95 429.102 656.903 422.024L639.473 424.971C634.845 425.757 629.709 426.76 626.547 430.308C624.264 427.331 621.919 424.138 621.518 420.389C621.04 415.87 623.677 411.443 627.302 408.697C631.072 406.12 635.338 404.36 639.828 403.53C647.787 401.663 655.919 400.629 664.091 400.445C667.315 400.445 671.095 400.722 672.853 403.437C673.367 404.584 673.981 405.684 674.689 406.723C676.092 408.265 678.437 408.142 680.488 408.265C687.692 408.558 694.371 412.322 699.6 417.351C704.829 422.379 708.624 428.58 712.264 434.812C714.979 439.439 717.632 444.175 720.178 448.926C722.423 452.726 724.166 456.801 725.36 461.05C727.659 470.568 724.605 480.733 719.298 488.954C713.992 497.176 706.572 503.793 699.246 510.287C697.24 512.061 694.865 513.959 692.227 513.573C690.516 513.172 688.976 512.238 687.831 510.904C685.938 509.026 684.243 506.959 682.771 504.734C682.045 503.788 681.586 502.664 681.445 501.48C681.522 500.233 681.881 499.02 682.494 497.932C686.134 489.678 686.167 480.281 682.586 472.002C677.959 461.544 667.917 453.692 665.511 442.525" fill="#301523"/>
<path d="M666.421 440.72C663.336 434.21 660.884 428.38 659.835 421.222C659.573 419.448 657.552 418.893 656.086 419.094C645.782 420.528 632.239 420.358 624.156 427.917L629.463 428.595C624.002 421.269 623.37 413.911 632.902 409.314C637.746 406.985 643.484 406.106 648.759 405.257C654.482 404.332 663.305 402.311 668.396 405.411C672.175 407.725 672.884 410.378 677.45 411.489C682.741 412.769 687.322 412.677 692.181 415.823C698.351 419.772 702.64 425.819 706.434 431.912C712.265 441.244 720.564 452.89 722.214 463.888C724.112 476.506 716.723 487.983 708.409 496.729C704.475 500.847 699.246 507.449 693.57 507.989C691.358 508.181 689.178 507.359 687.643 505.755C686.108 504.151 685.383 501.938 685.672 499.737C685.934 497.947 687.214 496.065 687.677 494.291C690.002 485.498 688.985 476.156 684.824 468.069C680.073 458.813 671.836 451.841 669.182 441.506C667.964 436.802 660.606 438.807 661.886 443.527C664.863 454.556 673.394 461.898 678.407 471.817C681.613 478.177 682.381 485.491 680.566 492.379C679.394 496.821 676.648 500.4 678.715 505.027C681.8 512.03 689.775 520.051 697.812 515.825C702.239 513.527 706.157 508.992 709.72 505.583C714.163 501.419 718.159 496.802 721.644 491.808C727.629 482.969 731.192 471.925 729.017 461.235C726.595 449.265 718.219 437.311 711.771 427.176C706.08 418.276 698.753 409.669 688.402 406.214C685.79 405.551 683.143 405.036 680.474 404.671C676.972 403.884 676.802 402.434 674.658 400.229C671.851 397.329 667.918 396.943 664.077 396.912C652.107 396.804 635.509 398.347 625.514 405.658C615.518 412.97 616.999 423.197 623.555 431.881C624.103 432.766 625.021 433.356 626.054 433.487C627.086 433.619 628.123 433.278 628.876 432.56C635.386 426.39 649.299 426.482 657.644 424.847L653.911 422.718C655.209 430.15 658.517 437.085 663.475 442.771C665.018 444.391 667.208 442.324 666.36 440.535L666.421 440.72Z" fill="#301523"/>
<path d="M610.397 500.785C614.243 501.146 618.057 499.824 620.855 497.16C622.83 495.186 620.13 491.345 617.77 493.15C615.682 494.953 613.135 496.143 610.412 496.59C609.254 496.59 608.314 497.529 608.314 498.687C608.314 499.846 609.254 500.785 610.412 500.785H610.397Z" fill="#F7A5D0"/>
<path d="M641.417 573.608C640.634 568.591 639.49 563.636 637.993 558.784C636.635 554.496 632.116 547.74 632.779 543.359C633.442 538.978 627.257 536.942 625.884 541.462C624.341 546.66 627.426 550.717 629.601 555.344C632.617 561.638 634.95 568.236 636.558 575.027C637.329 578.22 641.926 576.816 641.417 573.685V573.608Z" fill="#301523"/>
<path d="M714.795 555.144C708.393 538.438 700.264 522.257 692.598 506.092C690.485 501.618 683.636 505.536 685.919 509.994C693.94 525.682 701.668 541.77 710.877 556.794C712.095 558.769 715.69 557.488 714.795 555.144V555.144Z" fill="#301523"/>
<path d="M633.611 565.926C608.761 574.718 595.249 576.878 574.996 593.691C565.741 601.404 556.84 610.181 552.274 621.333C548.634 630.249 548.002 640.121 548.372 649.747C549.529 679.456 559.339 709.905 574.996 735.588C583.115 748.923 593.034 761.074 604.473 771.698C616.952 783.283 618.202 801.7 627.272 816.632C632.825 825.779 644.317 829.327 654.929 830.515C686.504 834.294 717.941 824.545 748.252 814.92C767.363 808.858 786.568 802.749 804.507 793.803C818.776 786.692 832.89 776.989 839.183 762.351C844.212 750.627 843.564 737.362 842.823 724.636L841.99 710.121C839.399 665.388 842.515 619.56 830.098 575.922C826.735 564.075 821.783 552.198 812.667 543.914C786.167 519.836 735.958 528.289 706.573 541.847C716.383 547.647 720.764 560.358 718.913 571.541C717.062 582.724 709.658 592.488 700.865 599.676C687.523 610.474 668.812 616.259 652.754 610.119C636.696 603.98 626.331 583.48 634.537 568.363" fill="#E7EAED"/>
<path d="M823.048 539.225C807.268 524.371 783.159 521.178 762.35 522.859C742.321 524.77 722.769 530.113 704.552 538.654C701.667 539.965 702.315 544.007 704.552 545.472C716.506 553.354 717.617 569.227 711.401 581.12C705.184 593.013 693.6 602.036 681.167 606.247C669.29 610.273 655.222 609.934 645.504 601.126C637.329 593.722 632.67 580.873 637.591 570.43C639.581 566.219 633.426 562.502 631.282 566.728C624.51 580.055 627.981 594.941 638.27 605.538C649.962 617.57 667.994 619.251 683.327 614.083C699.492 608.654 714.702 596.067 720.748 579.824C726.317 564.893 722.167 547.57 708.547 538.654V545.472C725.459 537.49 743.677 532.64 762.319 531.158C783.375 529.785 801.623 534.998 820.935 542.942C823.048 543.806 824.622 540.66 823.095 539.225H823.048Z" fill="#301523"/>
<path d="M633.026 563.782C615.225 568.41 596.992 572.898 581.613 583.495C565.201 594.787 549.051 609.873 545.272 630.265C541.215 652.246 546.182 676.926 553.169 697.827C560.195 719.083 570.927 738.927 584.868 756.443C592.056 765.389 602.129 772.716 608.006 782.542C613.143 791.149 615.503 801.052 619.513 810.23C623.369 819.023 628.213 825.933 637.144 830.021C645.798 833.97 655.516 835.05 664.909 835.373C690.407 836.253 715.458 829.466 739.583 821.969C762.967 814.719 786.83 807.639 808.641 796.332C829.512 785.535 845.199 769.708 847.097 745.321C848.207 731.253 846.294 716.939 845.662 702.871C844.983 687.616 844.443 672.329 843.888 657.074C843.718 652.446 836.469 652.354 836.577 657.074C837.116 680.582 837.595 703.966 838.813 727.459C839.353 737.902 839.816 748.823 836.16 758.818C832.335 769.261 824.067 777.19 814.981 783.205C796.564 795.376 774.783 802.24 753.928 808.919C731.855 816.015 709.488 823.558 686.366 826.35C668.426 828.525 639.998 830.792 629.462 812.575C624.958 804.785 622.66 795.885 619.205 787.602C615.844 779.501 610.784 772.215 604.366 766.238C573.6 736.013 555.156 695.438 552.614 652.384C551.982 640.245 552.737 627.704 559.077 617.061C564.846 607.312 573.916 599.353 582.925 592.658C598.643 580.966 617.045 575.69 634.707 567.854C637.067 566.805 635.37 563.227 632.995 563.782H633.026Z" fill="#301523"/>
<path d="M575.829 591.779C547.092 613.374 533.333 650.395 531.914 686.274C530.495 722.153 539.842 757.523 549.622 792.075C557.844 821.136 566.759 850.783 584.899 874.924C592.148 884.826 601.163 893.303 611.493 899.928C622.861 907.008 635.772 911.173 648.76 914.459C708.191 929.376 770.651 926.967 828.756 907.517C831.77 906.759 834.541 905.246 836.808 903.121C839.03 900.684 839.893 897.29 840.387 894.036C841.465 887.793 842.053 881.475 842.146 875.14C842.146 869.386 841.729 863.185 838.104 858.727C834.217 853.961 827.769 852.341 821.8 850.922C768.833 838.416 717.135 821.045 667.363 799.032C663.898 797.761 660.743 795.769 658.107 793.186C655.902 790.329 654.326 787.038 653.48 783.529C643.349 751.518 635.954 718.704 631.376 685.441" fill="#E7EAED"/>
<path d="M574.795 590.005C526.299 623.848 522.859 689.127 533.147 742.128C539.317 773.827 547.863 806.328 559.617 836.438C570.106 863.339 586.118 889.963 611.723 904.864C637.946 920.12 671.604 924.917 701.39 927.231C733.084 929.715 764.971 927.553 796.039 920.814C803.752 919.117 811.541 917.143 819.177 914.875C825.224 913.086 832.982 911.62 838.042 907.548C843.101 903.476 844.212 897.198 845.029 891.105C846.279 883.776 846.616 876.32 846.032 868.908C844.49 855.257 835.234 849.95 822.894 846.881C806.852 842.917 790.902 838.767 775.076 834.032C756.458 828.463 738.056 822.247 719.823 815.521C701.961 808.95 683.558 802.379 666.483 793.926C658.045 789.761 656.765 780.63 653.896 772.439C651.844 766.562 649.623 760.762 647.556 754.885C643.283 742.822 641.031 730.421 639.196 717.772C638.563 713.376 631.961 715.273 632.547 719.607C635.386 740.524 641.54 759.25 647.834 779.272C649.376 784.378 650.641 790.07 653.803 794.435C656.965 798.8 661.67 801.145 666.498 803.366C680.088 809.536 693.971 815.167 707.915 820.519C736.495 831.474 765.645 840.882 795.237 848.701C802.754 850.686 810.292 852.578 817.85 854.377C825.563 856.213 834.818 857.462 837.271 866.425C839.106 873.181 837.98 881.341 837.116 888.189C836.546 892.663 836.283 897.568 832.844 900.73C829.404 903.892 824.051 904.833 819.624 906.191C762.551 923.745 699.554 925.133 642.08 908.474C627.318 904.185 613.405 898 601.897 887.619C591.207 877.614 582.381 865.79 575.829 852.696C562.394 826.936 555.051 797.937 547.616 769.986C531.821 710.507 525.065 637.622 577.279 593.306C579.037 591.763 576.708 588.678 574.795 590.082V590.005Z" fill="#301523"/>
<path d="M835.59 861.704C849.21 860.162 863.201 860.054 876.42 863.694C889.64 867.335 902.072 875.063 909.461 886.601C911.657 889.623 912.898 893.233 913.024 896.966C912.916 900.684 910.587 904.525 906.977 905.373C903.368 906.222 899.126 902.874 899.928 899.203C904.965 910.512 908.327 922.495 909.908 934.774C910.433 938.83 910.325 943.813 906.823 945.926C901.98 948.826 896.473 943.443 893.388 938.723L887.357 929.467C887.881 934.65 888.159 939.864 888.22 945.062C888.447 947.561 887.983 950.074 886.878 952.328C883.917 957.248 875.973 956.523 871.978 952.328C867.983 948.132 866.903 942.131 866.008 936.47C866.995 942.101 867.396 947.993 865.7 953.438C864.003 958.883 859.884 963.866 854.347 965.285C848.809 966.704 842.115 963.65 840.634 958.127C839.909 955.474 842.84 951.664 844.613 953.762L824.962 914.042C823.257 911.017 822.073 907.727 821.46 904.309C821.23 900.273 821.861 896.235 823.311 892.462C826.536 882.159 830.511 872.106 835.204 862.383" fill="white"/>
<path d="M835.589 864.018C850.845 863.124 866.44 863.232 880.955 868.754C887.564 871.196 893.654 874.859 898.91 879.551C901.499 881.89 903.803 884.525 905.774 887.403C906.768 888.806 907.602 890.317 908.258 891.907C908.864 892.913 909.189 894.064 909.198 895.239C910.227 898.242 908.355 899.568 903.584 899.219L896.766 901.07C900.801 910.381 903.727 920.135 905.481 930.131C905.82 932.074 906.761 934.974 906.407 936.871C907.085 939.139 906.083 940.219 903.321 940.126C901.702 941.761 900.422 941.869 899.465 940.45C896.38 939.062 892.308 930.393 890.503 927.632C888.698 924.871 883.222 925.58 883.577 929.498C884.04 934.419 887.002 950.168 881.186 951.726C872.594 954.04 870.558 941.329 869.633 935.56C868.846 930.686 861.519 932.768 862.244 937.581C863.231 944.029 863.787 951.464 859.606 956.893C858.121 959.186 855.859 960.867 853.236 961.629C848.608 962.616 846.31 959.238 842.562 957.294C844.111 958.139 846.032 957.862 847.28 956.614C848.528 955.366 848.805 953.445 847.96 951.896C841.204 938.306 833.985 924.855 827.615 911.08C820.966 896.72 832.026 877.438 838.227 864.311C840.171 860.177 834.031 856.599 832.057 860.702C828.1 868.942 824.608 877.398 821.599 886.03C819.316 892.678 816.678 899.589 818.051 906.7C819.594 914.597 824.591 922.217 828.093 929.375C832.432 938.208 836.787 947.042 841.158 955.875L846.541 950.492C841.914 948.039 837.024 951.309 836.592 956.662C836.052 963.31 842.608 968.339 848.5 969.434C855.349 970.714 861.812 967.244 865.823 961.721C871.438 954.009 871.052 944.538 869.633 935.591L862.244 937.612C863.956 947.792 868.646 960.873 881.449 959.469C895.532 957.927 891.922 939.154 891.012 929.529L884.179 931.411C888.806 938.398 902.612 960.842 911.944 945.741C915.554 939.956 913.271 931.534 912.052 925.395C910.07 915.77 907.05 906.388 903.044 897.414C901.501 893.943 896.226 895.871 896.21 899.249C896.163 903.159 898.485 906.708 902.086 908.231C905.687 909.754 909.851 908.948 912.623 906.191C920.875 898.339 914.397 886.508 908.535 879.536C890.611 858.172 860.717 855.457 834.942 859.483C832.366 859.884 832.967 864.111 835.543 864.018H835.589Z" fill="#301523"/>
<path d="M596.113 579.068C570.97 587.197 554.836 608.793 541.801 630.511C539.966 633.596 544.393 635.879 546.429 633.226C561.222 613.945 576.184 594.895 597.718 582.894C598.57 582.351 598.914 581.277 598.536 580.34C598.158 579.403 597.166 578.868 596.175 579.068H596.113Z" fill="#301523"/>
<path d="M982.592 803.968C985.368 800.22 990.212 798.461 994.932 798.338C999.603 798.452 1004.23 799.284 1008.65 800.806C1014.2 802.348 1019.98 804.184 1024.15 808.21C1026.84 811.075 1028.94 814.446 1030.32 818.128C1033.78 826.167 1035.99 834.687 1036.89 843.395C1037.47 846.965 1037.12 850.624 1035.89 854.023C1034.44 857.324 1031.01 859.992 1027.45 859.499C1023.05 858.882 1020.6 854.177 1019.3 849.95C1019.03 848.575 1018.35 847.316 1017.34 846.341C1016.42 845.763 1015.35 845.439 1014.26 845.4C1005 844.32 995.287 843.626 987.327 838.752C979.368 833.877 974.015 823.218 978.442 814.997" fill="white"/>
<path d="M983.934 805.264C989.934 799.479 997.816 800.991 1005 803.243C1010.56 804.97 1017.13 806.683 1021.34 810.955C1028.51 818.159 1031.34 831.625 1032.58 841.343C1032.85 843.318 1033.83 846.881 1033.06 848.84C1028.57 854.897 1025.54 855.843 1023.96 851.678L1022.94 848.963C1021.76 846.001 1020.75 843.734 1017.73 842.377C1014.07 840.726 1008.83 841.004 1004.99 840.448C999.413 839.85 993.985 838.284 988.947 835.821C985.014 833.785 981.62 839.523 985.461 841.775C991.942 845.416 999.105 847.679 1006.5 848.423C1009.34 848.778 1013.44 848.639 1015.52 851.015C1016.13 852.179 1016.6 853.404 1016.94 854.67C1018.01 857.18 1019.66 859.397 1021.76 861.134C1025.93 864.256 1031.71 864.037 1035.64 860.609C1041.52 855.766 1041.35 847.729 1040.51 840.834C1038.89 827.522 1034.74 809.212 1022.13 801.978C1010.82 795.499 990.597 790.779 981.296 802.641C979.754 804.508 982.16 807.037 983.965 805.31L983.934 805.264Z" fill="#301523"/>
<path d="M1081.03 908.288C1057.34 872.448 1037.6 834.151 1022.14 794.065C1019.43 787 1016.94 778.64 1021.11 772.238C1024.19 767.456 1030.19 765.513 1035.67 763.893C1039.88 762.644 1044.23 761.379 1048.6 761.934C1058.82 763.23 1065.04 773.534 1069.73 782.727L1109.2 859.977C1113.64 868.676 1118.15 877.577 1119.47 887.233C1120.8 896.889 1118.41 907.656 1110.96 913.965C1103.51 920.274 1090.55 920.042 1085.06 911.96" fill="#301523"/>
<path d="M1082.66 907.317C1070.25 887.552 1058.92 867.13 1048.72 846.14C1043.33 835.086 1038.29 823.877 1033.59 812.513C1029.67 803.027 1022.79 791.088 1023.01 780.599C1023.16 768.906 1044.22 762.813 1053.01 767.78C1061.8 772.747 1066.44 785.458 1070.82 794.157C1082.14 816.349 1093.47 838.551 1104.84 860.763C1110.71 872.286 1117.73 885.166 1114.94 898.555C1112.43 910.571 1097.4 921.107 1087.75 909.229C1085 905.851 1078.98 910.417 1081.67 913.857C1087.57 921.617 1097.91 924.514 1106.98 920.952C1117.62 916.988 1123.01 905.851 1123.84 895.115C1124.92 881.233 1118.18 868.414 1112.09 856.46L1088.25 809.845C1081.45 796.564 1075.62 781.709 1066.75 769.647C1060.01 760.484 1050.96 755.995 1039.62 758.417C1029.07 760.685 1016.64 765.096 1014.94 777.251C1013.24 789.406 1021.48 803.166 1026.25 814.025C1040.92 847.337 1058.7 879.196 1079.34 909.183C1080.7 911.157 1083.97 909.353 1082.59 907.286L1082.66 907.317Z" fill="#301523"/>
<path d="M1076.27 805.51C1140.96 774.66 1203.73 739.182 1265 702.023C1326.26 664.863 1386.16 625.035 1444.11 582.832C1458.61 572.281 1473.01 561.576 1487.3 550.717C1493.75 545.812 1500 540.073 1506.88 535.785C1508.26 534.731 1509.83 533.946 1511.51 533.471C1518.39 533.117 1515.79 538.176 1515.02 541.184C1513.67 546.521 1512.05 551.827 1510.52 557.118C1505.2 575.443 1499.41 593.614 1493.35 611.693C1487.47 629.246 1482.15 647.865 1472.97 664.03C1463.93 679.918 1449.59 690.515 1434.69 700.526C1420.14 710.306 1405.38 719.777 1390.42 728.94C1360.93 747.038 1330.74 763.944 1299.86 779.658C1228.73 815.845 1154.69 844.104 1078.61 867.905C1074.09 869.324 1075.96 876.343 1080.57 875.047C1151.9 855.164 1221.37 827.106 1287.7 794.389C1320.82 778.1 1353.22 760.417 1384.88 741.341C1401.09 731.572 1417.08 721.458 1432.85 711C1447.31 701.406 1462.31 691.703 1473.05 677.805C1483.79 663.907 1489.19 647.078 1494.86 630.866C1501.52 611.924 1507.69 592.817 1513.37 573.546C1516.21 563.921 1518.99 554.265 1521.52 544.562C1522.92 539.194 1524.93 532.515 1519.97 528.289C1509.67 519.558 1492.01 538.778 1485.16 544.007C1424.72 590.138 1362.34 633.535 1298.01 674.196C1225.31 720.301 1150.09 761.363 1073.86 801.268C1071.02 802.811 1073.52 806.899 1076.36 805.541L1076.27 805.51Z" fill="#301523"/>
<path d="M1100.46 840.217C1169 813.331 1236.43 783.452 1302.68 751.322C1332.82 736.714 1362.84 721.242 1389.6 700.866C1417.37 679.702 1440.83 652.878 1464.21 627.133C1488.89 600.016 1506.32 568.996 1513.05 532.746C1513.3 531.435 1511.31 530.88 1511.06 532.191C1504.75 565.88 1489.25 595.728 1466.65 621.364C1444.34 646.631 1421.18 673.162 1394.92 694.449C1369.24 715.273 1339.92 731.068 1310.36 745.63C1278.62 761.271 1246.49 776.156 1214.15 790.563C1176.44 807.392 1138.35 823.357 1100.09 838.89C1099.28 839.214 1099.62 840.541 1100.46 840.217V840.217Z" fill="#301523"/>
<path d="M612.849 864.758C613.753 856.509 618.058 849.012 624.727 844.073C625.56 843.456 624.727 842.037 623.894 842.654C616.664 847.839 612.06 855.925 611.291 864.789C611.184 865.792 612.741 865.776 612.834 864.789L612.849 864.758Z" fill="#301523"/>
<path d="M619.744 873.042C622.427 866.41 626.014 860.181 630.403 854.532C631.051 853.668 629.601 852.835 628.953 853.683C624.492 859.471 620.858 865.851 618.156 872.641C617.77 873.628 619.359 874.06 619.698 873.088L619.744 873.042Z" fill="#301523"/>
<path d="M884.179 735.125C886.809 728.273 893.085 723.495 900.39 722.785C901.424 722.677 901.47 721.057 900.39 721.135C892.335 721.796 885.393 727.066 882.59 734.647C882.204 735.65 883.808 736.066 884.132 735.079L884.179 735.125Z" fill="#301523"/>
<path d="M894.282 742.082L903.676 734.061C904.524 733.336 903.29 732.102 902.442 732.827L893.079 740.879C892.23 741.604 893.449 742.807 894.282 742.082Z" fill="#301523"/>
<path d="M224.505 508.082C209.272 514.789 194.539 522.578 180.419 531.389C167.246 539.441 153.796 547.586 142.011 557.612C129.794 567.962 121.171 582.045 119.737 598.196C118.277 614.981 126.869 631.045 141.64 639.15C172.136 656.117 201.536 637.993 225.939 619.56C250.342 601.126 280.683 583.665 290.725 553.231C296.34 536.263 293.671 517.167 281.47 503.871C269.269 490.574 251.098 486.286 234.994 493.752C227.281 497.33 224.721 508.174 227.898 515.347C231.616 523.784 239.56 526.808 248.352 525.373C245.406 525.851 253.828 526.006 250.589 525.373C251.653 525.589 253.535 526.515 253.273 526.299C256.712 529.183 257.345 530.063 257.669 534.443C258.394 544.485 250.805 553.277 243.616 559.756C233.081 569.243 220.679 576.863 209.126 585.053C198.544 592.55 187.53 602.114 174.82 605.646C171.472 606.808 167.883 607.095 164.393 606.479C163.019 606.156 161.664 605.754 160.336 605.276C161.878 605.816 161.493 605.569 159.379 604.52C160.49 605.6 160.212 605.338 158.516 603.733C159.271 605.091 159.025 604.736 157.806 602.7C153.672 594.848 160.737 585.177 166.722 578.976C187.284 557.689 211.964 540.289 234.593 521.301C242.521 514.622 232.402 504.688 224.427 508.128L224.505 508.082Z" fill="white"/>
<path d="M308.526 413.139C287.655 426.05 268.852 442.632 254.954 462.917C241.318 482.846 226.88 511.614 242.891 534.304C260.661 559.463 294.519 553.493 315.93 537.204C336.523 521.574 352.76 500.918 363.085 477.216C369.347 462.654 376.026 445.501 372.124 429.398C367.758 411.458 351.701 400.336 333.561 403.545C315.05 406.83 319.138 437.881 338.034 436.601C340.996 436.663 340.96 436.375 337.926 435.737C338.072 435.668 338.242 435.668 338.389 435.737C338.806 436.946 339.086 438.198 339.222 439.47C339.361 444.946 336.893 450.869 335.103 455.929C327.952 475.491 315.838 492.857 299.949 506.323C293.779 511.598 285.357 518.17 276.95 517.877C258.008 517.26 273.078 485.946 277.382 477.401C287.516 457.24 300.381 439.424 317.488 424.693C323.858 419.202 315.621 408.743 308.556 413.109L308.526 413.139Z" fill="white"/>
<path d="M334.81 314.125C331.925 323.38 320.927 329.55 315.39 337.263C309.312 345.7 305.471 355.773 302.386 365.584C295.861 386.377 289.059 413.402 308.973 429.305C326.665 443.434 356.266 433.146 371.969 420.173C380.854 412.846 385.189 402.635 389.307 392.192C394.089 380.052 400.475 367.62 401.647 354.554C402.249 348.261 396.665 342.029 390.85 340.44C384.14 338.605 378.247 341.906 374.329 347.166C368.36 355.233 365.707 366.154 362.174 375.486C359.737 381.95 357.824 389.678 353.305 395.092C349.294 399.889 342.507 401.987 336.723 403.73C332.558 404.995 327.745 407.54 325.323 402.99C322.238 397.19 325.323 387.564 326.249 381.533C327.381 373.473 329.187 365.522 331.648 357.763C336.923 342.754 350.544 332.836 352.009 316.531C352.873 306.397 337.694 305.163 334.872 314.202L334.81 314.125Z" fill="white"/>
<path d="M482.183 244.82C490.111 240.871 499.258 236.228 508.406 237.107C512.185 237.462 518.725 239.143 520.067 243.416C522.041 249.586 515.254 256.867 511.028 260.245C503.994 265.875 495.34 269.269 487.89 274.128C475.905 281.964 480.347 301.137 495.263 301.384C509.655 301.631 527.132 289.044 536.819 279.095C547.971 267.572 554.373 250.604 548.789 234.886C543.668 220.494 529.831 211.471 514.853 210.36C498.796 209.172 484.281 218.072 472.018 227.328C461.852 235.04 470.305 250.635 482.183 244.727V244.82Z" fill="white"/>
<path d="M623.725 191.263C596.638 188.333 565.741 190.569 542.233 205.624C520.638 219.507 507.48 244.388 519.481 269.099C533.534 298.052 566.914 288.766 592.365 285.234C618.789 281.563 647.433 272.894 660.036 246.948C674.875 216.391 652.57 179.864 617.647 184.862C609.194 186.065 604.551 196.816 606.603 204.313C609.102 213.383 617.57 216.653 626.054 215.358C631.005 214.633 634.214 224.474 633.628 228.238C632.486 235.549 626.069 241.658 620.023 245.282C610.104 251.237 598.042 253.088 586.766 254.738C580.92 255.602 575.058 256.373 569.197 257.175C563.983 257.885 556.995 259.828 551.72 258.918C547.956 258.255 545.951 254.167 545.75 249.386C545.457 242.429 550.702 235.395 556.81 230.551C564.939 224.088 575.613 218.952 585.162 215.034C597.434 209.982 610.472 207.041 623.725 206.334C633.597 205.809 633.257 192.281 623.725 191.263V191.263Z" fill="white"/>
<path d="M751.106 170.794C726.086 164.285 696.809 167.493 673.07 177.427C649.33 187.361 620.161 204.359 625.175 234.331C629.802 262.096 658.323 276.95 684.546 274.683C699.2 273.403 713.098 268.868 726.719 263.546C739.753 258.471 754.484 253.412 764.85 243.617C774.444 234.547 779.18 220.695 778.223 207.645C777.128 192.976 770.31 181.422 758.803 172.522C745.183 162.002 726.518 185.911 740.293 196.554C745.738 200.781 748.422 206.473 747.836 212.149C746.864 221.404 739.676 224.674 731.315 228.515C719.359 234.155 706.904 238.669 694.11 241.997C684.531 244.372 671.928 246.27 663.259 240.1C643.901 226.294 666.684 212.627 679.919 205.47C701.761 193.593 724.266 188.888 748.885 187.284C757.97 186.698 760.685 173.309 751.106 170.825V170.794Z" fill="white"/>
<path d="M854.964 138.139L810.832 146.484C798.862 148.767 786.985 151.034 775.724 155.847C754.283 165.01 736.328 185.155 738.704 209.959C741.573 239.082 769.77 249.154 795.515 247.519C820.457 245.977 852.434 237.74 868.985 217.425C878.502 205.732 882.621 189.073 882.76 174.111C882.929 155.863 868.877 141.594 850.367 145.204C842.068 146.746 837.333 156.742 839.446 164.439C841.806 173.046 850.382 177.088 858.681 175.375C856.207 176.037 853.572 175.263 851.848 173.37C851.743 174.023 851.691 174.683 851.693 175.345C850.907 177.257 851.169 180.527 850.83 182.564C850.058 187.114 849.364 191.988 846.912 195.984C842.284 203.557 831.903 207.953 823.974 210.992C813.143 215.228 801.664 217.57 790.039 217.918C783.36 218.057 773.21 218.119 769.246 211.748C766.037 206.504 767.796 198.729 770.557 193.531C774.753 185.633 782.897 180.836 790.887 177.334C812.637 167.709 837.163 162.881 859.992 156.31C871.746 152.916 866.764 135.949 854.994 138.185L854.964 138.139Z" fill="white"/>
<path d="M930.068 99.7457C917.728 104.62 905.496 109.674 893.372 114.909C882.327 119.629 870.234 123.531 860.115 130.195C849.996 136.859 842.808 146.438 841.975 158.701C841.157 170.501 846.849 183.381 853.312 193.022C868.83 216.16 903.429 208.077 924.639 198.436C945.848 188.795 969.942 172.475 977.64 149.446C982.051 136.273 980.154 120.924 970.976 110.25C962.307 100.162 947.082 94.7325 934.356 99.9154C926.536 103.093 920.998 110.312 923.435 119.151C925.58 126.863 934.65 132.817 942.686 130.087C944.229 129.578 945.54 128.637 947.468 130.858C948.377 132.43 948.755 134.253 948.548 136.057C948.162 143.6 942.254 149.446 936.902 154.12C923.112 166.167 903.923 177.257 885.135 177.057C883.592 177.057 882.05 177.057 880.507 176.825C878.965 176.594 877.268 175.514 878.795 176.825C875.818 174.234 873.442 168.419 871.962 164.809C868.969 157.513 873.504 153.811 879.427 150.047C898.061 138.093 918.376 128.452 937.472 117.222C946.465 111.916 940.557 95.6271 930.099 99.7303L930.068 99.7457Z" fill="white"/>
<path d="M1042.12 54.9972C1028.74 55.1823 1014.91 59.8098 1002.61 64.9773C991.269 69.5406 980.632 75.6952 971.023 83.2561C953.253 97.6324 936.517 126.447 948.055 149.399C960.765 174.681 1002.04 168.557 1022.94 159.457C1034.45 154.459 1044.63 147.332 1054.55 139.728C1064.82 131.83 1074.91 122.899 1080.48 110.929C1086.82 97.2931 1088.49 80.4796 1079.99 67.2602C1071.49 54.0408 1056.57 46.5904 1041.27 50.9558C1025 55.5833 1027.39 82.4077 1045.39 81.3588C1050.83 81.0349 1054.94 84.0274 1054.33 90.4597C1053.5 99.4834 1045.91 106.502 1039.48 112.055C1022.76 126.354 1004.23 137.136 981.666 136.288C979.926 136.065 978.175 135.931 976.422 135.887C974.231 136.041 973.614 134.206 974.879 136.303C973.444 133.974 974.463 130.133 975.049 127.604C977.453 118.356 982.351 109.947 989.209 103.293C1005.2 87.1896 1027.34 81.0812 1045.9 69.0804C1051.97 65.147 1049.86 54.92 1042.09 55.028L1042.12 54.9972Z" fill="white"/>
<path d="M300.597 165.658C253.848 270.75 233.209 385.59 240.439 500.384C243.771 552.121 251.607 605.014 271.86 653.094C281.518 676.581 294.899 698.358 311.488 717.587C326.635 734.832 347.629 752.88 372.247 750.412C393.951 748.221 409.746 731.037 419.634 712.851C427.902 697.642 439.455 671.373 424.523 656.503C409.592 641.633 383.801 652.893 370.427 664.077C354.832 677.126 345.454 696.855 341.119 716.43C330.846 763.045 347.289 814.179 376.844 850.629C391.544 868.754 411.643 887.495 436.031 889.562C446.828 890.488 458.335 887.85 466.881 880.909C476.013 873.505 481.134 861.982 485.391 851.323C492.687 833.26 496.528 806.39 475.118 796.101C457.672 787.725 435.846 797.35 426.806 813.501C415.129 834.371 420.096 860.871 428.657 881.896C437.327 903.254 451.16 922.128 468.917 936.825C477.778 944.174 487.563 950.33 498.024 955.135C502.837 957.325 507.094 950.307 502.236 947.931C465.446 930.023 436.108 895.023 429.737 853.93C426.652 833.63 431.727 808.349 454.587 802.842C464.212 800.513 474.732 803.15 479.746 812.282C485.006 821.876 482.291 833.8 478.928 843.533C475.565 853.267 470.83 864.99 463.225 872.348C454.587 880.708 441.522 882.559 430.154 879.844C408.327 874.615 390.295 855.257 377.631 837.672C353.66 804.4 340.178 759.482 349.094 718.728C352.966 701.051 360.941 683.374 374.685 671.188C387.673 659.65 422.904 646.955 423.552 675.275C423.984 694.017 411.211 716.276 398.409 729.171C381.163 746.463 358.473 746.386 338.806 732.966C303.035 708.532 281.177 663.552 268.359 623.447C254.383 579.778 248.445 533.502 246.162 487.844C241.361 391.052 256.329 294.296 290.154 203.48C294.628 191.51 299.425 179.684 304.546 168.002C305.719 165.303 301.77 162.943 300.566 165.673L300.597 165.658Z" fill="white"/>
<path d="M299.903 280.606L326.388 288.782C329.18 289.645 330.398 285.234 327.591 284.416L300.982 276.704C299.888 276.405 298.759 277.051 298.46 278.146C298.162 279.241 298.808 280.37 299.903 280.668V280.606Z" fill="#F7A5D0"/>
<path d="M331.032 206.673C339.77 218.828 349.646 230.124 360.524 240.408C362.638 242.413 365.877 239.189 363.718 237.2C352.958 227.304 343.108 216.463 334.286 204.807C332.867 202.909 329.659 204.807 331.032 206.704V206.673Z" fill="#F7A5D0"/>
<path d="M398.501 166.568C399.755 181.193 401.893 195.73 404.902 210.097C405.519 213.044 410.131 211.81 409.437 208.848C406.155 194.908 403.82 180.761 402.449 166.506C402.203 164.007 398.3 163.961 398.501 166.506V166.568Z" fill="#F7A5D0"/>
<path d="M464.366 148.705C465.402 162.392 462.961 176.119 457.271 188.61C456.006 191.402 460.171 193.824 461.405 191.032C467.328 177.755 469.765 163.187 468.485 148.705C468.253 146.114 464.181 146.052 464.366 148.705V148.705Z" fill="#F7A5D0"/>
<path d="M409.222 395.277C410.293 405.263 412.36 415.118 415.392 424.693C416.271 427.469 420.683 426.235 419.757 423.49C416.652 414.326 414.471 404.875 413.248 395.277C412.939 392.747 408.944 392.686 409.222 395.277V395.277Z" fill="#F7A5D0"/>
<path d="M445.301 376.52C451.334 387.31 456.457 398.583 460.618 410.224C461.59 412.954 466.001 411.767 464.983 409.021C460.52 397.092 455.072 385.555 448.694 374.53C448.101 373.695 446.969 373.452 446.085 373.97C445.202 374.488 444.861 375.595 445.301 376.52V376.52Z" fill="#F7A5D0"/>
<path d="M488.136 351.068C490.119 361.494 495.625 370.921 503.731 377.769C506.045 379.728 509.392 376.335 507.048 374.453C499.298 368.307 493.86 359.716 491.622 350.081C491.082 347.752 487.612 348.755 488.075 351.068H488.136Z" fill="#F7A5D0"/>
<path d="M515.917 316.933C531.585 321.829 546.884 327.834 561.699 334.903C564.537 336.23 567.067 332.065 564.198 330.615C549.113 323.136 533.322 317.173 517.059 312.814C515.962 312.605 514.889 313.272 514.591 314.348C514.293 315.423 514.87 316.547 515.917 316.933V316.933Z" fill="#F7A5D0"/>
<path d="M409.407 1457.63C410.764 1459.72 413.063 1460.71 415.145 1462.04L422.117 1466.31C425.31 1468.25 428.287 1463.06 425.048 1461.3L417.829 1457.46C415.67 1456.31 413.572 1454.83 411.073 1454.73C410.386 1454.74 409.756 1455.11 409.414 1455.7C409.072 1456.3 409.069 1457.03 409.407 1457.63V1457.63Z" fill="#F7A5D0"/>
<path d="M421.885 1446.78L431.68 1454.76C432.422 1455.47 433.508 1455.7 434.474 1455.34C435.441 1454.99 436.118 1454.11 436.217 1453.08C436.315 1452.06 435.817 1451.06 434.935 1450.53L424.569 1443.28C422.533 1441.85 419.942 1445.18 421.885 1446.78V1446.78Z" fill="#F7A5D0"/>
<path d="M430.678 1435.92L444.684 1441.85C445.51 1442.31 446.526 1442.25 447.3 1441.71C448.074 1441.17 448.47 1440.23 448.321 1439.3C448.171 1438.37 447.501 1437.6 446.597 1437.33L432.22 1432.1C430.015 1431.28 428.41 1435 430.678 1435.92Z" fill="#F7A5D0"/>
<path d="M884.441 1415.56C890.025 1418.04 896.283 1418.55 902.195 1417.01C905.126 1416.27 903.845 1411.6 900.946 1412.48C896.034 1414.01 890.748 1413.83 885.952 1411.97C883.885 1411.2 882.374 1414.7 884.41 1415.56H884.441Z" fill="#F7A5D0"/>
<path d="M885.999 1430.32C891.509 1433.06 897.81 1433.75 903.784 1432.28C906.746 1431.5 905.465 1427.24 902.535 1427.76C897.539 1428.78 892.356 1428.37 887.588 1426.56C885.428 1425.73 883.885 1429.34 886.045 1430.32H885.999Z" fill="#F7A5D0"/>
<path d="M882.637 1445.95C887.281 1448.27 892.238 1449.89 897.352 1450.78C898.256 1451.08 899.252 1450.81 899.882 1450.1C900.513 1449.38 900.656 1448.36 900.246 1447.5C899.835 1446.64 898.952 1446.11 898 1446.15C893.417 1445.56 888.941 1444.32 884.704 1442.48C882.328 1441.43 880.215 1444.84 882.637 1446.01V1445.95Z" fill="#F7A5D0"/>
<path d="M697.904 747.65C692.752 730.127 687.261 712.681 681.785 695.205C680.242 690.438 680.89 687.492 685.657 685.302C688.45 684.024 691.085 682.424 693.508 680.535C698.515 676.655 702.633 671.748 705.586 666.144C708.409 660.745 708.825 655.346 710.399 649.685C710.846 648.142 709.905 647.849 711.478 647.51C711.987 647.402 715.705 649.747 716.522 650.117C719.246 651.333 722.082 652.279 724.991 652.94C737.996 655.786 751.599 653.062 762.505 645.428L757.276 644.055C763.114 657.61 767.759 671.649 771.159 686.011C774.429 699.894 778.871 715.998 772.254 729.433C767.395 739.336 753.589 755.178 741.866 756.427C735.218 757.121 727.042 753.666 720.61 751.939C713.083 749.918 705.586 747.774 698.105 745.583C693.369 744.195 691.333 751.568 696.069 752.957C704.954 755.579 713.869 758.078 722.816 760.453C729.989 762.351 738.118 765.328 745.614 763.538C758.386 760.592 771.482 746.293 777.745 735.326C785.766 721.289 783.19 705.925 780.074 690.824C776.39 673.461 770.958 656.515 763.862 640.245C762.797 638.423 760.457 637.809 758.633 638.872C751.758 643.828 743.492 646.484 735.017 646.461C730.82 646.434 726.654 645.737 722.677 644.394C719.16 643.206 716.183 640.738 712.728 639.612C708.1 638.07 704.306 640.168 703.133 644.888C702.316 648.22 702.671 651.767 701.791 655.145C700.756 659.047 699.066 662.745 696.794 666.082C691.858 673.455 685.286 676.371 677.944 680.52C673.316 683.127 672.113 686.952 673.424 691.935C675.877 701.19 680.026 710.445 683.297 719.422C686.834 729.222 690.433 738.992 694.094 748.73C694.973 751.059 698.614 750.165 697.889 747.681L697.904 747.65Z" fill="black"/>
<defs>
<filter id="filter0_f_2_19" x="47" y="47" width="1481" height="1481" filterUnits="userSpaceOnUse" color-interpolation-filters="sRGB">
<feFlood flood-opacity="0" result="BackgroundImageFix"/>
<feBlend mode="normal" in="SourceGraphic" in2="BackgroundImageFix" result="shape"/>
<feGaussianBlur stdDeviation="2" result="effect1_foregroundBlur_2_19"/>
</filter>
</defs>
</svg>
